<?xml version="1.0" encoding="utf-8"?>
<!-- Generator: Adobe Illustrator 27.5.0, SVG Export Plug-In . SVG Version: 6.00 Build 0)  -->
<svg version="1.1" xmlns="http://www.w3.org/2000/svg" xmlns:xlink="http://www.w3.org/1999/xlink" x="0px" y="0px"
	 viewBox="0 0 500 500" style="enable-background:new 0 0 500 500;" xml:space="preserve">
<g id="BACKGROUND">
	<rect style="fill:#F5FAFD;" width="500" height="500"/>
</g>
<g id="OBJECTS">
	<g>
		<g>
			
				<rect x="75.266" y="270.029" transform="matrix(0.9261 -0.3773 0.3773 0.9261 -96.974 50.2045)" style="fill:#005CEA;" width="8.795" height="5.211"/>
			<rect x="54.923" y="300.466" style="fill:#005CEA;" width="37.939" height="8.632"/>
			<polygon style="fill:#D1D8DB;" points="77.791,324.25 54.923,299.274 54.923,324.25 			"/>
			
				<rect x="39.609" y="324.846" style="fill:none;stroke:#000000;stroke-width:2;stroke-linecap:round;stroke-linejoin:round;stroke-miterlimit:10;" width="53.253" height="10.189"/>
			<path style="fill:none;stroke:#DDE4E8;stroke-width:19;stroke-linecap:round;stroke-linejoin:round;stroke-miterlimit:10;" d="
				M58.677,305.477c-2.697,0.82-5.56,1.261-8.525,1.261c-16.168,0-29.275-13.107-29.275-29.275
				c0-16.168,13.107-29.275,29.275-29.275"/>
			<polygon style="fill:#005CEA;" points="90.477,292.615 76.874,292.615 73.893,287.066 92.862,287.066 			"/>
			<circle style="fill:#D1D8DB;" cx="51.856" cy="251.37" r="8.726"/>
			
				<rect x="60.383" y="221.414" transform="matrix(0.9261 -0.3773 0.3773 0.9261 -87.9632 44.2973)" style="fill:#F5FAFD;stroke:#000000;stroke-width:2;stroke-linecap:round;stroke-linejoin:round;stroke-miterlimit:10;" width="17.408" height="50.52"/>
			
				<rect x="53.364" y="213.909" transform="matrix(0.9261 -0.3773 0.3773 0.9261 -78.3093 37.9678)" style="fill:none;stroke:#000000;stroke-width:2;stroke-linecap:round;stroke-linejoin:round;stroke-miterlimit:10;" width="8.795" height="9.93"/>
			<path style="fill:none;stroke:#000000;stroke-width:2;stroke-linecap:round;stroke-linejoin:round;stroke-miterlimit:10;" d="
				M48.772,251.37c0-2.092,1.696-3.789,3.789-3.789c2.092,0,3.789,1.696,3.789,3.789c0,2.092-1.696,3.789-3.789,3.789
				C50.468,255.159,48.772,253.462,48.772,251.37z"/>
			
				<line style="fill:none;stroke:#000000;stroke-width:2;stroke-linecap:round;stroke-linejoin:round;stroke-miterlimit:10;" x1="84.812" y1="260.738" x2="67.934" y2="267.916"/>
			<path style="fill:none;stroke:#000000;stroke-width:2;stroke-linecap:round;stroke-linejoin:round;stroke-miterlimit:10;" d="
				M50.153,248.188c-16.168,0-29.275,13.107-29.275,29.275c0,16.168,13.107,29.275,29.275,29.275c2.965,0,5.827-0.441,8.525-1.261
				l7.68,19.368"/>
			
				<rect x="76.874" y="292.615" style="fill:none;stroke:#000000;stroke-width:2;stroke-linecap:round;stroke-linejoin:round;stroke-miterlimit:10;" width="13.731" height="7.615"/>
			
				<polyline style="fill:none;stroke:#000000;stroke-width:2;stroke-linecap:round;stroke-linejoin:round;stroke-miterlimit:10;" points="
				51.496,226.565 52.56,251.37 60.581,251.37 			"/>
		</g>
		<g>
			
				<rect x="412.245" y="324.131" style="fill:none;stroke:#000000;stroke-width:2;stroke-linecap:round;stroke-linejoin:round;stroke-miterlimit:10;" width="50.073" height="10.94"/>
			
				<rect x="384.829" y="232.161" style="fill:#F5FAFD;stroke:#000000;stroke-width:2;stroke-linecap:round;stroke-linejoin:round;stroke-miterlimit:10;" width="105.515" height="76.837"/>
			
				<polygon style="fill:none;stroke:#000000;stroke-width:2;stroke-linecap:round;stroke-linejoin:round;stroke-miterlimit:10;" points="
				454.686,323.501 419.878,323.501 424.76,309.466 449.804,309.466 			"/>
			<rect x="395.356" y="242.223" style="fill:#D1D8DB;" width="84.46" height="56.714"/>
			<g>
				
					<line style="fill:none;stroke:#005CEA;stroke-width:4;stroke-linecap:round;stroke-linejoin:round;stroke-miterlimit:10;" x1="437.632" y1="257.992" x2="437.632" y2="283.167"/>
				
					<line style="fill:none;stroke:#005CEA;stroke-width:4;stroke-linecap:round;stroke-linejoin:round;stroke-miterlimit:10;" x1="431.252" y1="260.645" x2="431.252" y2="280.514"/>
				
					<line style="fill:none;stroke:#005CEA;stroke-width:4;stroke-linecap:round;stroke-linejoin:round;stroke-miterlimit:10;" x1="464.993" y1="257.992" x2="464.993" y2="283.167"/>
				
					<line style="fill:none;stroke:#005CEA;stroke-width:4;stroke-linecap:round;stroke-linejoin:round;stroke-miterlimit:10;" x1="458.614" y1="260.645" x2="458.614" y2="280.514"/>
				
					<line style="fill:none;stroke:#005CEA;stroke-width:4;stroke-linecap:round;stroke-linejoin:round;stroke-miterlimit:10;" x1="444.012" y1="260.645" x2="444.012" y2="280.514"/>
				
					<line style="fill:none;stroke:#005CEA;stroke-width:4;stroke-linecap:round;stroke-linejoin:round;stroke-miterlimit:10;" x1="409.651" y1="257.992" x2="409.651" y2="283.167"/>
				
					<line style="fill:none;stroke:#005CEA;stroke-width:4;stroke-linecap:round;stroke-linejoin:round;stroke-miterlimit:10;" x1="416.031" y1="260.645" x2="416.031" y2="280.514"/>
				<g>
					<path style="fill:none;stroke:#000000;stroke-width:2;stroke-linecap:round;stroke-linejoin:round;stroke-miterlimit:10;" d="
						M405.698,257.771c1.402-0.495,2.916-0.762,4.491-0.762c7.496,0,13.572,6.077,13.572,13.572c0,7.49-6.077,13.567-13.572,13.567
						c-1.575,0-3.088-0.267-4.491-0.762"/>
					<path style="fill:none;stroke:#000000;stroke-width:2;stroke-linecap:round;stroke-linejoin:round;stroke-miterlimit:10;" d="
						M469.474,283.386c-1.402,0.495-2.916,0.762-4.491,0.762c-7.496,0-13.572-6.077-13.572-13.572
						c0-7.49,6.077-13.567,13.572-13.567c1.575,0,3.088,0.267,4.491,0.762"/>
					
						<circle style="fill:none;stroke:#000000;stroke-width:2;stroke-linecap:round;stroke-linejoin:round;stroke-miterlimit:10;" cx="437.629" cy="270.579" r="13.57"/>
				</g>
			</g>
		</g>
		<g>
			<g>
				<path style="fill:#D1D8DB;" d="M143.375,390.353l-1.721,0.008c-3.023,0.014-5.486-2.427-5.499-5.45l-0.136-30.428
					c-0.014-3.023,2.426-5.486,5.45-5.499l1.721-0.008c3.024-0.013,5.486,2.427,5.499,5.45l0.136,30.428
					C148.838,387.878,146.398,390.34,143.375,390.353z"/>
				<path style="fill:#005CEA;" d="M147.848,383.273c0.015,2.956-2.376,5.369-5.332,5.377c-2.963,0.015-5.369-2.369-5.384-5.332
					l-0.045-10.159h10.716L147.848,383.273z"/>
				<path style="fill:#D1D8DB;" d="M150.275,356.442l-15.826,0.071c-1.789,0.008-3.246-1.436-3.254-3.225l-0.005-1.019
					c-0.008-1.789,1.436-3.246,3.225-3.254l15.826-0.071c1.789-0.008,3.246,1.436,3.254,3.225l0.005,1.019
					C153.508,354.977,152.064,356.434,150.275,356.442z"/>
			</g>
			<g>
				<path style="fill:#D1D8DB;" d="M167.02,390.353l-1.721,0.008c-3.023,0.014-5.486-2.427-5.499-5.45l-0.136-30.428
					c-0.014-3.023,2.426-5.486,5.45-5.499l1.721-0.008c3.024-0.013,5.486,2.427,5.499,5.45l0.136,30.428
					C172.484,387.878,170.044,390.34,167.02,390.353z"/>
				<path style="fill:#005CEA;" d="M171.494,383.273c0.015,2.956-2.377,5.369-5.332,5.377c-2.963,0.015-5.369-2.369-5.384-5.332
					l-0.045-10.159h10.716L171.494,383.273z"/>
				<path style="fill:#D1D8DB;" d="M173.92,356.442l-15.826,0.071c-1.789,0.008-3.246-1.436-3.254-3.225l-0.005-1.019
					c-0.008-1.789,1.436-3.246,3.225-3.254l15.826-0.071c1.789-0.008,3.246,1.436,3.254,3.225l0.004,1.019
					C177.153,354.977,175.709,356.434,173.92,356.442z"/>
			</g>
			<g>
				<path style="fill:#D1D8DB;" d="M190.665,390.353l-1.721,0.008c-3.024,0.014-5.486-2.427-5.499-5.45l-0.136-30.428
					c-0.014-3.023,2.427-5.486,5.45-5.499l1.721-0.008c3.024-0.013,5.486,2.427,5.499,5.45l0.136,30.428
					C196.129,387.878,193.689,390.34,190.665,390.353z"/>
				<path style="fill:#005CEA;" d="M195.139,383.273c0.015,2.956-2.377,5.369-5.332,5.377c-2.963,0.015-5.369-2.369-5.384-5.332
					l-0.045-10.159h10.716L195.139,383.273z"/>
				<path style="fill:#D1D8DB;" d="M197.566,356.442l-15.826,0.071c-1.789,0.008-3.246-1.436-3.254-3.225l-0.005-1.019
					c-0.008-1.789,1.436-3.246,3.225-3.254l15.826-0.071c1.789-0.008,3.246,1.436,3.254,3.225l0.005,1.019
					C200.799,354.977,199.355,356.434,197.566,356.442z"/>
			</g>
			
				<rect x="122.616" y="358.742" style="fill:#F5FAFD;stroke:#000000;stroke-width:2;stroke-linecap:round;stroke-linejoin:round;stroke-miterlimit:10;" width="88.289" height="7.798"/>
			<g>
				
					<rect x="122.851" y="366.54" style="fill:#F5FAFD;stroke:#000000;stroke-width:2;stroke-linecap:round;stroke-linejoin:round;stroke-miterlimit:10;" width="4.623" height="27.84"/>
				
					<rect x="206.283" y="366.54" style="fill:#F5FAFD;stroke:#000000;stroke-width:2;stroke-linecap:round;stroke-linejoin:round;stroke-miterlimit:10;" width="4.623" height="27.84"/>
			</g>
		</g>
		
			<line style="fill:none;stroke:#000000;stroke-width:2;stroke-linecap:round;stroke-linejoin:round;stroke-miterlimit:10;" x1="493.529" y1="334.585" x2="6.47" y2="334.585"/>
		
			<line style="fill:none;stroke:#000000;stroke-width:2;stroke-linecap:round;stroke-linejoin:round;stroke-miterlimit:10;" x1="413.598" y1="395.14" x2="83.74" y2="395.14"/>
		<g>
			
				<polygon style="fill:none;stroke:#000000;stroke-width:2;stroke-linecap:round;stroke-linejoin:round;stroke-miterlimit:10;" points="
				297.668,394.38 248.191,394.38 239.666,383.495 306.193,383.495 			"/>
			<g>
				<path style="fill:#D1D8DB;" d="M314.879,316.669L314.879,316.669c-2.598-2.598-6.81-2.598-9.408,0l-24.726,24.726
					c-2.17,2.17-2.52,5.463-1.066,8.004l-6.273,6.273c-0.682,0.682-0.682,1.788,0,2.47c0.682,0.682,1.788,0.682,2.47,0l6.273-6.273
					c2.541,1.455,5.834,1.104,8.004-1.066l24.726-24.726C317.477,323.479,317.477,319.267,314.879,316.669z"/>
				<path style="fill:#005CEA;" d="M292.398,348.612l-2.218,2.218c-2.17,2.17-5.462,2.52-7.999,1.067l-6.275,6.275
					c-0.681,0.681-1.79,0.681-2.471,0c-0.681-0.681-0.681-1.79,0-2.471l6.275-6.275c-1.453-2.538-1.103-5.829,1.067-7.999
					l2.218-2.218L292.398,348.612z"/>
				<g>
					
						<line style="fill:none;stroke:#000000;stroke-width:2;stroke-linecap:round;stroke-linejoin:round;stroke-miterlimit:10;" x1="295.551" y1="325.423" x2="300.255" y2="330.127"/>
					
						<line style="fill:none;stroke:#000000;stroke-width:2;stroke-linecap:round;stroke-linejoin:round;stroke-miterlimit:10;" x1="291.752" y1="329.221" x2="296.456" y2="333.926"/>
					
						<line style="fill:none;stroke:#000000;stroke-width:2;stroke-linecap:round;stroke-linejoin:round;stroke-miterlimit:10;" x1="287.954" y1="333.02" x2="292.658" y2="337.724"/>
					
						<line style="fill:none;stroke:#000000;stroke-width:2;stroke-linecap:round;stroke-linejoin:round;stroke-miterlimit:10;" x1="284.155" y1="336.819" x2="288.859" y2="341.523"/>
				</g>
				<path style="fill:none;stroke:#000000;stroke-width:2;stroke-linecap:round;stroke-linejoin:round;stroke-miterlimit:10;" d="
					M312.197,333.696l-14.345-14.345c-0.839-0.839-0.839-2.198,0-3.037l0.19-0.19c0.839-0.839,2.198-0.839,3.037,0l14.345,14.345
					c0.839,0.839,0.839,2.198,0,3.037l-0.19,0.19C314.395,334.535,313.035,334.535,312.197,333.696z"/>
			</g>
			<path style="fill:#005CEA;" d="M268.737,370.609c0-2.315,4.192-8.454,4.192-8.454s4.192,6.139,4.192,8.454
				c0,2.315-1.877,4.192-4.192,4.192C270.614,374.801,268.737,372.924,268.737,370.609z"/>
		</g>
		<g>
			<rect x="328.453" y="378.104" style="fill:#D1D8DB;" width="24.789" height="7.564"/>
			<rect x="362.198" y="378.104" style="fill:#D1D8DB;" width="24.789" height="7.564"/>
			
				<rect x="328.453" y="369.591" style="fill:none;stroke:#000000;stroke-width:2;stroke-linecap:round;stroke-linejoin:round;stroke-miterlimit:10;" width="24.789" height="24.789"/>
			<rect x="325.453" y="361.721" style="fill:#005CEA;" width="30.675" height="9.798"/>
			
				<rect x="362.198" y="369.591" style="fill:none;stroke:#000000;stroke-width:2;stroke-linecap:round;stroke-linejoin:round;stroke-miterlimit:10;" width="24.789" height="24.789"/>
			<rect x="359.198" y="361.721" style="fill:#005CEA;" width="30.675" height="9.798"/>
		</g>
		<g>
			<g>
				<path style="fill:none;stroke:#000000;stroke-width:2;stroke-linecap:round;stroke-linejoin:round;stroke-miterlimit:10;" d="
					M194.298,212.365v-39.576h-12.178v39.576c-9.876,2.676-17.142,11.697-17.142,22.419c0,12.83,10.401,23.231,23.231,23.231
					c12.83,0,23.231-10.401,23.231-23.231C211.44,224.062,204.173,215.042,194.298,212.365z"/>
				<path style="fill:#005CEA;" d="M206.227,235.434c0,9.947-8.064,18.018-18.018,18.018c-9.955,0-18.018-8.071-18.018-18.018
					c0-1.781,0.257-3.502,0.743-5.121h34.55C205.969,231.932,206.227,233.653,206.227,235.434z"/>
				<path style="fill:#D1D8DB;" d="M184.601,238.491c0,1.35-1.094,2.444-2.444,2.444c-1.35,0-2.444-1.094-2.444-2.444
					c0-1.35,1.094-2.444,2.444-2.444C183.507,236.047,184.601,237.141,184.601,238.491z"/>
				<path style="fill:#D1D8DB;" d="M199.556,228.951c0,2.492-2.02,4.512-4.512,4.512c-2.492,0-4.513-2.02-4.513-4.512
					c0-2.492,2.02-4.512,4.513-4.512C197.536,224.438,199.556,226.459,199.556,228.951z"/>
			</g>
			
				<rect x="120.19" y="203.871" style="fill:none;stroke:#000000;stroke-width:2;stroke-linecap:round;stroke-linejoin:round;stroke-miterlimit:10;" width="5.643" height="120.471"/>
			
				<rect x="115.673" y="324.342" style="fill:none;stroke:#000000;stroke-width:2;stroke-linecap:round;stroke-linejoin:round;stroke-miterlimit:10;" width="14.677" height="10.243"/>
			
				<rect x="105.194" y="203.871" style="fill:none;stroke:#000000;stroke-width:2;stroke-linecap:round;stroke-linejoin:round;stroke-miterlimit:10;" width="73.945" height="5.031"/>
			<path style="fill:#D1D8DB;" d="M117.479,206.871c0-3.154,2.557-5.711,5.711-5.711c3.154,0,5.711,2.557,5.711,5.711
				c0,3.154-2.557,5.711-5.711,5.711C120.036,212.582,117.479,210.025,117.479,206.871z"/>
			
				<rect x="271.839" y="223.871" style="fill:none;stroke:#000000;stroke-width:2;stroke-linecap:round;stroke-linejoin:round;stroke-miterlimit:10;" width="5.643" height="100.471"/>
			
				<rect x="267.322" y="324.342" style="fill:none;stroke:#000000;stroke-width:2;stroke-linecap:round;stroke-linejoin:round;stroke-miterlimit:10;" width="14.677" height="10.243"/>
			
				<rect x="259.405" y="223.871" style="fill:none;stroke:#000000;stroke-width:2;stroke-linecap:round;stroke-linejoin:round;stroke-miterlimit:10;" width="53.383" height="5.031"/>
			<path style="fill:#D1D8DB;" d="M269.128,226.871c0-3.154,2.557-5.711,5.711-5.711s5.711,2.557,5.711,5.711
				c0,3.154-2.557,5.711-5.711,5.711S269.128,230.025,269.128,226.871z"/>
			<rect x="179.14" y="201.16" style="fill:#D1D8DB;" width="20" height="11.422"/>
			<rect x="169.247" y="286.255" style="fill:#D1D8DB;" width="36.98" height="9.921"/>
			<g>
				<path style="fill:none;stroke:#000000;stroke-width:2;stroke-linecap:round;stroke-linejoin:round;stroke-miterlimit:10;" d="
					M158.616,333.773L158.616,333.773c1.743,1.006,3.971,0.409,4.977-1.333l17.342-30.036c1.006-1.742,0.409-3.971-1.333-4.977h0
					c-1.742-1.006-3.971-0.409-4.977,1.333l-17.342,30.037C156.276,330.539,156.873,332.767,158.616,333.773z"/>
				<path style="fill:none;stroke:#000000;stroke-width:2;stroke-linecap:round;stroke-linejoin:round;stroke-miterlimit:10;" d="
					M219.601,333.773L219.601,333.773c-1.742,1.006-3.971,0.409-4.977-1.333l-17.342-30.036c-1.006-1.742-0.409-3.971,1.333-4.977
					l0,0c1.743-1.006,3.971-0.409,4.977,1.333l17.342,30.037C221.94,330.539,221.343,332.767,219.601,333.773z"/>
			</g>
			
				<rect x="159.798" y="296.933" style="fill:#F5FAFD;stroke:#000000;stroke-width:2;stroke-linecap:round;stroke-linejoin:round;stroke-miterlimit:10;" width="58.62" height="9.842"/>
			<path style="fill:#D1D8DB;" d="M179.96,279.238c0-4.295,7.777-16.822,7.777-16.822s7.777,12.527,7.777,16.822
				s-3.482,7.777-7.777,7.777C183.442,287.015,179.96,283.533,179.96,279.238z"/>
			<path style="fill:#D1D8DB;" d="M179.96,279.238c0-4.295,7.777-16.822,7.777-16.822s7.777,12.527,7.777,16.822
				s-3.482,7.777-7.777,7.777C183.442,287.015,179.96,283.533,179.96,279.238z"/>
			<path style="fill:#F5FAFD;" d="M184.943,279.341c0-1.543,2.794-6.045,2.794-6.045s2.794,4.501,2.794,6.045
				s-1.251,2.794-2.794,2.794S184.943,280.884,184.943,279.341z"/>
			
				<polygon style="fill:none;stroke:#000000;stroke-width:2;stroke-linecap:round;stroke-linejoin:round;stroke-miterlimit:10;" points="
				386.261,334.389 364.53,297.973 364.53,246.159 347.275,246.159 347.275,297.973 325.544,334.389 			"/>
			<polygon style="fill:#005CEA;" points="378.606,330.035 333.744,330.035 340.963,317.933 371.388,317.933 			"/>
			<path style="fill:#005CEA;" d="M351.711,303.985c0-2.315,4.192-8.454,4.192-8.454s4.192,6.139,4.192,8.454
				c0,2.315-1.877,4.192-4.192,4.192C353.587,308.177,351.711,306.3,351.711,303.985z"/>
			<g>
				<path style="fill:#D1D8DB;" d="M316.764,248.148l-0.83,0.004c-3.023,0.014-5.486-2.426-5.499-5.45l-0.123-27.516
					c-0.014-3.024,2.427-5.486,5.45-5.499l0.83-0.004c3.023-0.014,5.486,2.426,5.499,5.45l0.123,27.516
					C322.228,245.672,319.788,248.134,316.764,248.148z"/>
				<path style="fill:#005CEA;" d="M321.308,241.564c0.014,2.748-2.209,4.992-4.957,4.998c-2.755,0.014-4.991-2.202-5.005-4.957
					l-0.041-9.445h9.962L321.308,241.564z"/>
				<path style="fill:#D1D8DB;" d="M323.336,216.622l-14.256,0.064c-1.789,0.008-3.246-1.436-3.254-3.225l-0.002-0.491
					c-0.008-1.789,1.436-3.246,3.225-3.254l14.256-0.064c1.789-0.008,3.246,1.436,3.254,3.225l0.002,0.491
					C326.569,215.157,325.125,216.614,323.336,216.622z"/>
			</g>
			<path style="fill:none;stroke:#005CEA;stroke-width:2;stroke-miterlimit:10;" d="M318.453,224.871h16.959
				c11.467,0,20.763,9.296,20.763,20.764v45.639"/>
			<path style="fill:none;stroke:#000000;stroke-width:2;stroke-linecap:round;stroke-linejoin:round;stroke-miterlimit:10;" d="
				M188.209,187.713v-34.256c0-5.608,4.546-10.155,10.155-10.155h5.9c5.608,0,10.155,4.546,10.155,10.155v37.548
				c0,5.608,4.546,10.155,10.155,10.155l0,0c5.608,0,10.155-4.546,10.155-10.155v-37.548c0-5.608,4.546-10.155,10.155-10.155h9.269
				c5.608,0,10.155,4.546,10.155,10.155v37.548c0,5.608,4.546,10.155,10.155,10.155h6.213c5.608,0,10.155-4.546,10.155-10.155
				v-37.548c0-5.608,4.546-10.155,10.155-10.155h6.639c5.596,0,10.137,4.527,10.155,10.122l0.157,49.346"/>
			<g>
				
					<ellipse transform="matrix(0.2219 -0.9751 0.9751 0.2219 54.0717 354.3655)" style="fill:#F5FAFD;stroke:#005CEA;stroke-width:2;stroke-miterlimit:10;" cx="249.074" cy="143.302" rx="10.783" ry="10.783"/>
				<g>
					
						<line style="fill:none;stroke:#005CEA;stroke-width:2;stroke-miterlimit:10;" x1="249.074" y1="135.825" x2="249.074" y2="138.924"/>
					
						<line style="fill:none;stroke:#005CEA;stroke-width:2;stroke-miterlimit:10;" x1="249.074" y1="147.602" x2="249.074" y2="150.908"/>
				</g>
				<g>
					
						<line style="fill:none;stroke:#005CEA;stroke-width:2;stroke-miterlimit:10;" x1="256.616" y1="143.303" x2="253.517" y2="143.303"/>
					
						<line style="fill:none;stroke:#005CEA;stroke-width:2;stroke-miterlimit:10;" x1="241.533" y1="143.303" x2="244.839" y2="143.303"/>
				</g>
			</g>
		</g>
	</g>
	<g>
		<g>
			
				<line style="fill:none;stroke:#000000;stroke-width:2;stroke-miterlimit:10;" x1="93.491" y1="75.296" x2="66.308" y2="102.479"/>
			
				<line style="fill:none;stroke:#000000;stroke-width:2;stroke-miterlimit:10;" x1="93.491" y1="75.296" x2="104.899" y2="116.111"/>
			<circle style="fill:#D1D8DB;" cx="63.853" cy="100.024" r="9.294"/>
			<circle style="fill:#B8C0C4;" cx="104.899" cy="116.111" r="14.251"/>
			
				<ellipse transform="matrix(0.7071 -0.7071 0.7071 0.7071 -25.8593 88.1617)" style="fill:#D1D8DB;" cx="93.491" cy="75.296" rx="14.251" ry="14.251"/>
		</g>
		<g>
			
				<line style="fill:none;stroke:#000000;stroke-width:2;stroke-miterlimit:10;" x1="432.486" y1="70.096" x2="397.538" y2="70.194"/>
			
				<line style="fill:none;stroke:#000000;stroke-width:2;stroke-miterlimit:10;" x1="432.486" y1="70.096" x2="413.676" y2="103.719"/>
			<path style="fill:#D1D8DB;" d="M391.537,61.08c3.29-3.309,8.641-3.324,11.949-0.034c3.309,3.29,3.324,8.641,0.034,11.95
				c-3.29,3.309-8.641,3.324-11.949,0.034C388.262,69.739,388.247,64.389,391.537,61.08z"/>
			
				<ellipse transform="matrix(0.6928 -0.7211 0.7211 0.6928 52.2833 330.1718)" style="fill:#B8C0C4;" cx="413.676" cy="103.719" rx="12.956" ry="12.956"/>
			<path style="fill:#D1D8DB;" d="M423.299,60.961c5.045-5.074,13.249-5.097,18.322-0.051c5.074,5.045,5.097,13.248,0.051,18.322
				c-5.045,5.074-13.248,5.097-18.322,0.051C418.276,74.238,418.253,66.034,423.299,60.961z"/>
		</g>
		<g>
			
				<line style="fill:none;stroke:#000000;stroke-width:2;stroke-miterlimit:10;" x1="334.539" y1="418.507" x2="278.462" y2="446.15"/>
			
				<line style="fill:none;stroke:#000000;stroke-width:2;stroke-miterlimit:10;" x1="334.539" y1="418.507" x2="378.903" y2="442.994"/>
			<path style="fill:#D1D8DB;" d="M272.462,437.036c3.29-3.309,8.641-3.324,11.949-0.034c3.309,3.29,3.324,8.64,0.034,11.949
				c-3.291,3.309-8.641,3.324-11.95,0.034C269.186,445.695,269.171,440.345,272.462,437.036z"/>
			
				<ellipse transform="matrix(1 -0.0021 0.0021 1 -0.9325 0.7993)" style="fill:#B8C0C4;" cx="378.903" cy="442.994" rx="9.135" ry="9.135"/>
			
				<ellipse transform="matrix(0.0456 -0.999 0.999 0.0456 -98.7819 733.621)" style="fill:#D1D8DB;" cx="334.539" cy="418.507" rx="12.956" ry="12.956"/>
		</g>
		
			<ellipse transform="matrix(0.7071 -0.7071 0.7071 0.7071 -12.9332 328.2263)" style="fill:none;stroke:#D1D8DB;stroke-width:2;stroke-miterlimit:10;" cx="389.738" cy="179.725" rx="7.654" ry="7.654"/>
		<path style="fill:none;stroke:#D1D8DB;stroke-width:2;stroke-miterlimit:10;" d="M275.316,83.052c0-2.917,2.365-5.282,5.282-5.282
			c2.917,0,5.282,2.365,5.282,5.282c0,2.917-2.365,5.282-5.282,5.282C277.681,88.334,275.316,85.969,275.316,83.052z"/>
		<path style="fill:none;stroke:#D1D8DB;stroke-width:2;stroke-miterlimit:10;" d="M256.548,273.57c0,3.702-3.001,6.702-6.702,6.702
			c-3.702,0-6.702-3.001-6.702-6.702c0-3.702,3.001-6.702,6.702-6.702C253.547,266.868,256.548,269.868,256.548,273.57z"/>
		<path style="fill:none;stroke:#D1D8DB;stroke-width:2;stroke-miterlimit:10;" d="M72.564,361.311c0,3.517-2.852,6.369-6.369,6.369
			c-3.517,0-6.369-2.852-6.369-6.369c0-3.517,2.851-6.369,6.369-6.369C69.712,354.942,72.564,357.793,72.564,361.311z"/>
		<circle style="fill:none;stroke:#D1D8DB;stroke-width:2;stroke-miterlimit:10;" cx="237.014" cy="420.638" r="4.753"/>
		<path style="fill:none;stroke:#D1D8DB;stroke-width:2;stroke-miterlimit:10;" d="M180.601,99.711c0,2.214-1.794,4.008-4.008,4.008
			c-2.214,0-4.008-1.794-4.008-4.008c0-2.214,1.794-4.008,4.008-4.008C178.807,95.703,180.601,97.498,180.601,99.711z"/>
		<path style="fill:#B8C0C4;" d="M214.917,61.195c0,1.439-1.167,2.606-2.606,2.606s-2.606-1.167-2.606-2.606
			s1.167-2.606,2.606-2.606S214.917,59.756,214.917,61.195z"/>
		<path style="fill:#B8C0C4;" d="M359.324,157.467c0,1.439-1.167,2.606-2.607,2.606c-1.439,0-2.606-1.167-2.606-2.606
			c0-1.44,1.167-2.607,2.606-2.607C358.158,154.86,359.324,156.027,359.324,157.467z"/>
		<path style="fill:#B8C0C4;" d="M443.365,154.86c0,1.439-1.167,2.607-2.606,2.607c-1.439,0-2.607-1.167-2.607-2.607
			s1.167-2.606,2.607-2.606C442.198,152.254,443.365,153.421,443.365,154.86z"/>
		<path style="fill:#B8C0C4;" d="M303.986,276.802c0,1.44-1.167,2.607-2.606,2.607c-1.439,0-2.606-1.167-2.606-2.607
			c0-1.439,1.167-2.606,2.606-2.606C302.819,274.196,303.986,275.363,303.986,276.802z"/>
		<path style="fill:#B8C0C4;" d="M430.142,362.908c0,1.439-1.167,2.606-2.607,2.606s-2.607-1.167-2.607-2.606
			c0-1.44,1.167-2.606,2.607-2.606S430.142,361.469,430.142,362.908z"/>
		<path style="fill:#B8C0C4;" d="M83.874,182.68c0,1.439-1.167,2.607-2.606,2.607c-1.44,0-2.606-1.167-2.606-2.607
			s1.167-2.606,2.606-2.606C82.707,180.074,83.874,181.24,83.874,182.68z"/>
	</g>
</g>
</svg>
